<?xml version="1.0" standalone="no"?><!DOCTYPE svg PUBLIC "-//W3C//DTD SVG 1.1//EN" "http://www.w3.org/Graphics/SVG/1.1/DTD/svg11.dtd"><svg t="1660113158194" class="icon" viewBox="0 0 1024 1024" version="1.1" xmlns="http://www.w3.org/2000/svg" p-id="4010" width="32" height="32" xmlns:xlink="http://www.w3.org/1999/xlink"><defs><style type="text/css">@font-face { font-family: feedback-iconfont; src: url("//at.alicdn.com/t/font_1031158_u69w8yhxdu.woff2?t=1630033759944") format("woff2"), url("//at.alicdn.com/t/font_1031158_u69w8yhxdu.woff?t=1630033759944") format("woff"), url("//at.alicdn.com/t/font_1031158_u69w8yhxdu.ttf?t=1630033759944") format("truetype"); }
</style></defs><path d="M512 96c229.76 0 416 186.24 416 416s-186.24 416-416 416S96 741.76 96 512 282.24 96 512 96z m0 64C317.6 160 160 317.6 160 512s157.6 352 352 352 352-157.6 352-352S706.4 160 512 160z m0 128a191.68 191.68 0 0 1 150.848 73.184l-45.76 45.76A128 128 0 0 0 384 480v63.968a128 128 0 0 0 233.088 73.088l45.76 45.728A192 192 0 0 1 320 544v-64a192 192 0 0 1 192-192z" fill="#ffffff" p-id="4011" data-spm-anchor-id="a313x.7781069.0.i1" class="selected"></path></svg>