<svg width="178" height="22" viewBox="0 0 178 22" fill="none" xmlns="http://www.w3.org/2000/svg">
<path d="M7.79996 2.64964C7.79996 3.79515 8.51582 4.77099 9.51796 5.14077V18.8859H4.37583L4.37613 5.14077C5.37827 4.77099 6.09413 3.79515 6.09413 2.64964C6.09413 1.18619 4.92615 0 3.48554 0C2.04552 0 0.87754 1.18619 0.87754 2.64964C0.87754 3.79515 1.59369 4.77099 2.59583 5.14077V18.8859H0.89L0.83749 18.8875C0.370537 18.9149 0 19.3085 0 19.7898C0 20.2891 0.398423 20.6942 0.89 20.6942H10.408L10.6388 20.6927C16.5635 20.63 21.5297 18.1524 23.8458 14.0616C23.9787 14.0797 24.1145 14.089 24.2525 14.089C25.9319 14.089 27.2933 12.7061 27.2933 11C27.2933 10.089 26.905 9.27014 26.2873 8.70447C27.1978 7.16597 28.5708 5.89238 30.2846 4.95121V14.6616C29.2825 15.0314 28.5666 16.0073 28.5666 17.1528C28.5666 18.6162 29.7346 19.8024 31.1746 19.8024C32.6152 19.8024 33.7829 18.6162 33.7829 17.1528C33.7829 16.0073 33.0668 15.0314 32.0649 14.6616V4.13901C33.6061 3.5643 35.3413 3.21773 37.2067 3.13395V16.8592C36.2046 17.2287 35.4885 18.2048 35.4885 19.3504C35.4885 20.8138 36.6564 22 38.0967 22C39.5374 22 40.7053 20.8138 40.7053 19.3504C40.7053 18.2048 39.9895 17.2287 38.987 16.8592L38.9867 3.11405H44.1292L44.1295 16.8592C43.127 17.2287 42.4112 18.2045 42.4112 19.3504C42.4112 20.8138 43.5788 22 45.0192 22C46.4595 22 47.6275 20.8138 47.6275 19.3504C47.6275 18.2048 46.9113 17.2287 45.9095 16.8592L45.9092 3.11405H47.615L47.6672 3.11255C48.1345 3.08512 48.5047 2.69153 48.5047 2.21025C48.5047 1.71088 48.1069 1.30584 47.615 1.30584H38.0967L37.8665 1.30704C31.9412 1.36973 26.9753 3.84759 24.6592 7.93838C24.5263 7.9203 24.3904 7.91096 24.2525 7.91096C22.5734 7.91096 21.2117 9.29395 21.2117 11C21.2117 11.911 21.6 12.7299 22.2177 13.2955C21.3072 14.8337 19.9342 16.1076 18.2204 17.0491V7.33836C19.2225 6.96858 19.9384 5.99274 19.9384 4.84693C19.9384 3.38378 18.7707 2.19729 17.3304 2.19729C15.8901 2.19729 14.7221 3.38378 14.7221 4.84693C14.7221 5.99274 15.4379 6.96858 16.4404 7.33836V17.8607C14.8989 18.4357 13.164 18.7826 11.298 18.8661V5.14077C12.3004 4.77099 13.0162 3.79515 13.0162 2.64964C13.0162 1.18619 11.8483 0 10.408 0C8.96764 0 7.79996 1.18619 7.79996 2.64964ZM169.901 3.86115L163.902 18.0822H166.171L170.901 6.51773L175.67 18.0822H177.901L171.901 3.86115H169.901ZM157.776 18.0822H160.045V3.86115H157.776V18.0822ZM150.167 3.86115V14.6833L140.091 3.86115H138.167V18.0822H140.437V7.2603L150.513 18.0822H152.436V3.86115H150.167ZM130.559 18.0822H132.827V3.86115H130.559V18.0822ZM124.318 3.86115L119.741 15.3084L115.318 3.86115H112.895L115.587 10.4639L113.741 15.3084L109.126 3.86115H106.703L112.703 18.0822H114.703L116.741 13.2377L118.702 18.0822H120.702L126.702 3.86115H124.318ZM92.0616 3.86115V18.0822H94.3305V5.89299H100.061C101.253 5.89299 102.061 6.71332 102.061 7.92452C102.061 9.13543 101.253 9.95605 100.061 9.95605L96.878 9.95575V11.9873L99.4842 11.9876L101.984 18.0822H104.33L101.753 11.7528L101.843 11.7182C103.368 11.1085 104.33 9.61038 104.33 7.92452C104.33 5.6977 102.715 3.86115 100.292 3.86115H92.0616ZM81.6887 3.86115L75.6892 18.0822H77.9581L82.6884 6.51773L87.4576 18.0822H89.6883L83.6888 3.86115H81.6887ZM60.0474 3.86115V18.0822H66.2012L66.3175 18.0813C70.1498 18.0189 73.3158 14.878 73.3158 10.9717C73.3158 6.79167 70.2777 3.86115 66.2012 3.86115H60.0474ZM62.3166 5.89299H66.2012C68.9703 5.89299 71.0469 8.11981 71.0469 10.9717C71.0469 13.8238 68.9703 16.0507 66.2012 16.0507H62.3166V5.89299Z" fill="white"/>
</svg>
