<svg width="96" height="86" viewBox="0 0 96 86" fill="none" xmlns="http://www.w3.org/2000/svg">
<path fill-rule="evenodd" clip-rule="evenodd" d="M27.4658 79.0477L40.0436 82.3952V78.0177L41.0704 76.9878H48.2576V82.1375V85.7423H40.557L31.0594 81.6225L27.4658 79.0477Z" fill="#CDBDB2"/>
<path fill-rule="evenodd" clip-rule="evenodd" d="M68.5352 79.0477L56.2142 82.3952V78.0177L55.1875 76.9878H48.0003V82.1375V85.7423H55.7009L65.198 81.6225L68.5352 79.0477Z" fill="#CDBDB2"/>
<path fill-rule="evenodd" clip-rule="evenodd" d="M41.0697 69.5207L40.043 78.0175L41.3262 76.9876H54.6738L56.2139 78.0175L55.1872 69.5207L53.1337 68.2331L42.8663 68.4908L41.0697 69.5207Z" fill="black"/>
<path fill-rule="evenodd" clip-rule="evenodd" d="M34.1387 12.1017L40.2991 26.5209L43.1229 68.4911H53.1334L56.2136 26.5209L61.8607 12.1017H34.1387Z" fill="#F89C35"/>
<path fill-rule="evenodd" clip-rule="evenodd" d="M7.1872 43.7724L0 64.6285L17.968 63.5985H29.5186V54.5868L29.0053 36.0479L26.4384 38.1078L7.1872 43.7724Z" fill="#F89D35"/>
<path fill-rule="evenodd" clip-rule="evenodd" d="M20.791 46.0897L41.8392 46.6047L39.5293 57.419L29.5183 54.8442L20.791 46.0897Z" fill="#D87C30"/>
<path fill-rule="evenodd" clip-rule="evenodd" d="M20.791 46.3475L29.5183 54.587V62.8265L20.791 46.3475Z" fill="#EA8D3A"/>
<path fill-rule="evenodd" clip-rule="evenodd" d="M29.5195 54.8441L39.787 57.4189L43.1241 68.491L40.8137 69.7782L29.5195 63.0836V54.8441Z" fill="#F89D35"/>
<path fill-rule="evenodd" clip-rule="evenodd" d="M29.5193 63.0836L27.4658 79.0477L41.0704 69.521L29.5193 63.0836Z" fill="#EB8F35"/>
<path fill-rule="evenodd" clip-rule="evenodd" d="M41.8383 46.6045L43.122 68.4909L39.2715 57.2902L41.8383 46.6045Z" fill="#EA8E3A"/>
<path fill-rule="evenodd" clip-rule="evenodd" d="M17.7109 63.3413L29.5185 63.0836L27.465 79.0477L17.7109 63.3413Z" fill="#D87C30"/>
<path fill-rule="evenodd" clip-rule="evenodd" d="M5.64709 86L27.4651 79.0477L17.7111 63.3414L0 64.6286L5.64709 86Z" fill="#EB8F35"/>
<path fill-rule="evenodd" clip-rule="evenodd" d="M40.2991 26.5208L29.2619 35.7903L20.791 46.0896L41.8392 46.8623L40.2991 26.5208Z" fill="#E8821E"/>
<path fill-rule="evenodd" clip-rule="evenodd" d="M27.4658 79.0476L41.0704 69.5209L40.0436 77.7604V82.3951L30.803 80.5925L27.4658 79.0476Z" fill="#DFCEC3"/>
<path fill-rule="evenodd" clip-rule="evenodd" d="M68.5352 79.0476L55.1875 69.5209L56.2142 77.7604V82.3951L65.4549 80.5925L68.5352 79.0476Z" fill="#DFCEC3"/>
<path fill-rule="evenodd" clip-rule="evenodd" d="M36.1928 51.2392L39.0166 57.1616L29.0056 54.5867L36.1928 51.2392Z" fill="black"/>
<path fill-rule="evenodd" clip-rule="evenodd" d="M5.39062 0L40.2999 26.5207L34.3963 12.1015L5.39062 0Z" fill="#E88F35"/>
<path fill-rule="evenodd" clip-rule="evenodd" d="M5.38987 0L0.769531 14.1616L3.33639 29.6107L1.53959 30.6406L4.10645 32.958L2.05296 34.7604L4.8765 37.3352L3.0797 38.8801L7.18667 44.0298L26.4381 38.1077C35.8499 30.5548 40.4703 26.6926 40.2991 26.5209C40.128 26.3492 28.4916 17.5089 5.38987 0Z" fill="#8E5A30"/>
<path fill-rule="evenodd" clip-rule="evenodd" d="M88.8128 43.7724L96 64.6285L78.032 63.5985H66.4814V54.5868L66.9947 36.0479L69.5616 38.1078L88.8128 43.7724Z" fill="#F89D35"/>
<path fill-rule="evenodd" clip-rule="evenodd" d="M75.209 46.0897L54.1608 46.6047L56.4707 57.419L66.4817 54.8442L75.209 46.0897Z" fill="#D87C30"/>
<path fill-rule="evenodd" clip-rule="evenodd" d="M75.209 46.3475L66.4817 54.587V62.8265L75.209 46.3475Z" fill="#EA8D3A"/>
<path fill-rule="evenodd" clip-rule="evenodd" d="M66.4805 54.8441L56.213 57.4189L52.8759 68.491L55.1863 69.7782L66.4805 63.0836V54.8441Z" fill="#F89D35"/>
<path fill-rule="evenodd" clip-rule="evenodd" d="M66.4817 63.0836L68.5352 79.0477L55.1875 69.7782L66.4817 63.0836Z" fill="#EB8F35"/>
<path fill-rule="evenodd" clip-rule="evenodd" d="M54.1617 46.6045L52.878 68.4909L56.7285 57.2902L54.1617 46.6045Z" fill="#EA8E3A"/>
<path fill-rule="evenodd" clip-rule="evenodd" d="M78.2891 63.3413L66.4815 63.0836L68.535 79.0477L78.2891 63.3413Z" fill="#D87C30"/>
<path fill-rule="evenodd" clip-rule="evenodd" d="M90.3529 86L68.5349 79.0477L78.2889 63.3414L96 64.6286L90.3529 86Z" fill="#EB8F35"/>
<path fill-rule="evenodd" clip-rule="evenodd" d="M55.7009 26.5208L66.7381 35.7903L75.209 46.0896L54.1608 46.8623L55.7009 26.5208Z" fill="#E8821E"/>
<path fill-rule="evenodd" clip-rule="evenodd" d="M59.8072 51.2392L56.9834 57.1616L66.9944 54.5867L59.8072 51.2392Z" fill="black"/>
<path fill-rule="evenodd" clip-rule="evenodd" d="M90.6094 0L55.7001 26.5207L61.6037 12.1015L90.6094 0Z" fill="#E88F35"/>
<path fill-rule="evenodd" clip-rule="evenodd" d="M90.6101 0L95.2305 14.1616L92.6636 29.6107L94.4604 30.6406L91.8936 32.958L93.947 34.7604L91.1235 37.3352L92.9203 38.8801L88.8133 44.0298L69.5619 38.1077C60.1501 30.5548 55.5297 26.6926 55.7009 26.5209C55.872 26.3492 67.5084 17.5089 90.6101 0Z" fill="#8E5A30"/>
</svg>
