<svg width="106" height="104" viewBox="0 0 106 104" fill="none" xmlns="http://www.w3.org/2000/svg">
<rect x="2" y="2" width="48.6111" height="48.6111" stroke="white" stroke-width="3"/>
<rect x="53.3887" y="53.3889" width="48.6111" height="48.6111" rx="24.3056" stroke="white" stroke-width="3"/>
<path d="M96.6662 45.8333L105.326 30.8333H88.006L96.6662 45.8333ZM57.7773 12.6111H73.6662V9.61108H57.7773V12.6111ZM73.6662 12.6111C85.5404 12.6111 95.1662 22.237 95.1662 34.1111H98.1662C98.1662 20.5801 87.1972 9.61108 73.6662 9.61108V12.6111Z" fill="white"/>
<path d="M10.1111 56.7778L1.45086 71.7778H18.7714L10.1111 56.7778ZM49 90H33.1111V93H49V90ZM33.1111 90C21.237 90 11.6111 80.3741 11.6111 68.5H8.61111C8.61111 82.031 19.5801 93 33.1111 93V90Z" fill="white"/>
</svg>
