<svg width="20" height="20" viewBox="0 0 20 20" fill="none" xmlns="http://www.w3.org/2000/svg">
<path fill-rule="evenodd" clip-rule="evenodd" d="M20 0H0V20H20V0ZM11.9073 5.60917L12.2174 5.56917L12.2174 5.56918H12.2282V5.55918C12.9693 5.52008 13.6901 5.80901 14.1991 6.34918C14.6536 6.28045 15.0932 6.13505 15.4991 5.91918L15.8091 5.74918C15.6591 6.20918 15.3791 6.61919 14.9991 6.92919C14.9091 7.00919 14.8191 7.07919 14.7191 7.12919C15.2091 7.07011 15.6876 6.93868 16.1391 6.73919C15.9083 7.10795 15.6215 7.43857 15.2891 7.7192L14.8891 8.0492C14.9091 8.58921 14.8691 9.13922 14.7691 9.66922C14.1382 12.4993 12.4782 14.4193 9.85731 15.2393C8.69729 15.5693 7.46644 15.6093 6.28642 15.3593C5.78641 15.2393 5.29641 15.0793 4.8164 14.8793C4.5664 14.7793 4.33639 14.6593 4.10639 14.5193L3.88638 14.3893C4.15109 14.4292 4.41944 14.4393 4.6864 14.4193C4.80198 14.4015 4.91361 14.3936 5.02216 14.3859C5.1578 14.3763 5.28865 14.3671 5.41641 14.3393C5.94087 14.2311 6.44638 14.0458 6.91643 13.7893C7.16035 13.6712 7.38875 13.5234 7.59644 13.3493C7.34644 13.3493 7.09644 13.3093 6.85643 13.2193C6.10559 12.9593 5.51558 12.3693 5.26557 11.6093C5.51558 11.6393 6.22559 11.6993 6.38559 11.5592C6.08559 11.5192 5.80558 11.4092 5.56558 11.2292C4.80704 10.779 4.35459 9.95077 4.38556 9.06922L4.65556 9.16922C4.82606 9.23889 5.00385 9.2892 5.18557 9.31922C5.29433 9.35882 5.41157 9.36917 5.52558 9.34922C5.4669 9.28603 5.39396 9.23098 5.31963 9.17489C5.22928 9.10672 5.13689 9.037 5.06557 8.94921C4.52441 8.31884 4.31638 7.46815 4.50556 6.65918C4.56784 6.43201 4.65856 6.21362 4.77556 6.00918C4.84425 6.10568 4.92121 6.19602 5.00557 6.27918C5.22421 6.54967 5.47273 6.79456 5.74641 7.00919C6.6362 7.73829 7.68455 8.24862 8.80729 8.4992C9.1673 8.59921 9.5473 8.64921 9.92731 8.64921C9.82731 8.2692 9.82731 7.8592 9.92731 7.46919C10.111 6.71512 10.6362 6.09005 11.3473 5.77917C11.5273 5.70917 11.7173 5.64917 11.9073 5.60917Z" fill="white"/>
</svg>
